<svg xmlns="http://www.w3.org/2000/svg" width="1600" height="900" viewBox="0 0 1600 900">
  <rect width="1600" height="900" fill="#efeae2"/>
  <g fill="#d9d3c8" opacity="0.45">
    <circle cx="120" cy="90" r="4"/><circle cx="320" cy="160" r="3"/><circle cx="520" cy="70" r="4"/>
    <circle cx="760" cy="140" r="3"/><circle cx="980" cy="80" r="4"/><circle cx="1240" cy="150" r="3"/>
    <circle cx="1450" cy="90" r="4"/><circle cx="210" cy="310" r="3"/><circle cx="420" cy="260" r="4"/>
    <circle cx="670" cy="350" r="3"/><circle cx="900" cy="280" r="4"/><circle cx="1170" cy="330" r="3"/>
    <circle cx="1410" cy="290" r="4"/><circle cx="170" cy="520" r="3"/><circle cx="410" cy="470" r="4"/>
    <circle cx="690" cy="560" r="3"/><circle cx="930" cy="500" r="4"/><circle cx="1190" cy="560" r="3"/>
    <circle cx="1430" cy="510" r="4"/><circle cx="150" cy="760" r="3"/><circle cx="380" cy="710" r="4"/>
    <circle cx="640" cy="790" r="3"/><circle cx="910" cy="730" r="4"/><circle cx="1180" cy="810" r="3"/>
    <circle cx="1450" cy="760" r="4"/>
  </g>
</svg>
